<?xml version="1.0" encoding="utf-8"?>
<!-- Generator: Adobe Illustrator 18.1.1, SVG Export Plug-In . SVG Version: 6.00 Build 0)  -->
<svg version="1.1" id="Capa_1" xmlns="http://www.w3.org/2000/svg" xmlns:xlink="http://www.w3.org/1999/xlink" x="0px" y="0px"
	 viewBox="0 0 595.3 841.9" enable-background="new 0 0 595.3 841.9" xml:space="preserve">
<g id="Capa_1_1_">
</g>
<path fill="#A308BA" d="M113.3,213.8c0,0,75.4-92.4,209.2-98.3c133.8-6,207.9,104.5,207.9,104.5s-96.5,19.6-210.6-13.2
	C188.8,237.8,113.3,213.8,113.3,213.8z"/>
<path fill="#A308BA" d="M384.8,329.2c7.1-3.1,16.6-23.4,11.9-21.5c-4.8,2-12.8,2.8-14.8,0c-3.5,0.7,0-6.7,0-6.7s2.6-3.4,0-3.7
	c-2.6-0.3,2.4-3.3,2.4-3.3s-3.4,2.1-5.1,0s2.5-4.6,2.5-4.6V286c0,0-6.3,0-7.6-3.4c-1.3-3.4,11.3-6.3,11.3-6.3s2.7-8.9-2-8
	c-7.2-0.4-5.1-6.8-5.1-6.8s-0.2-7.3,2.5-10.1s1.7-6.3,26.2-9.7c24.5-3.4,34.2,10.1,34.2,10.1s19.8-12.2,33.3-0.4
	c13.5,11.8,7.2,30.4,7.2,30.4c0,5,0.8,10.1,6.3,11.8s11.8,0,11.8,0s-7.6,12.7-13.1,14.3c-5.5,1.7-14.3-3.4-19.4-6.8
	s-0.4-23.6-0.4-23.6s1.3-15.2-7.6-17.7c-8.9-2.5-14.8,0.4-14.8,0.4s-0.4,12.7-3.8,20.7c-3.4,8-11.4,13.1-11.4,13.1
	s-7.6,6.3-14.8,9.3c-5.5,8.4-0.8,14.8-0.8,14.8l31.2-6.8c0,0,12.5-6.5,35,3.8c22.5,10.3,22.6,10.3,30.8,14
	c1.4,9.6-14.3,16.8-14.3,16.8s-1.7-9.3-16.9-18.6c-15.2-9.3-16.9-9.8-23.2-9.7c-6.3,0.1-21.5,0.4-21.5,0.4v4.2
	c0,0,10.1,1.7,24.1,10.5c13.9,8.9,21.9,30,21.9,30s-4.6,18.5-18.6,11.8c0,0,2.1-6.1-0.8-12.2c-3-6.2-0.4-12.9-10.1-21.1
	c-9.7-8.2-4.2-6.3-13.5-11.4c-9.3-5.1-18.6-4.2-18.6-4.2l1.3,3.8c0,0,11.4,8.4,26.6,35.4c15.2,27,28.3,66.7,28.3,66.7l8.4,21.5
	l-5.1,3l8.9,15.6c0,0,6.8,8,6.3,12.2c-0.4,4.2-4.6-2.5-4.6-2.5l-3-6.3l1.3,10.5c0,0,1.3,3,0.8,9.7c-0.4,6.8-4.2,0-4.2,0l-0.4-11.8
	l-3.8-4.2l0.8,7.2c0,0,0,4.6,0,10.5c0,5.9-3.4,0-3.4,0v-13.5l-5.5-7.6c0,0-1.3,2.1-3.8,8.9c-2.5,6.8-3.4-3-3.4-3l4.6-13.1l0.8-8.4
	l-6.3,0.4c0,0-1.3-19-11.4-47.3c-10.1-28.3-26.2-49.8-26.2-49.8s-7.6,13.9-15.6,22.8c-8,8.9,0,22.4,0,22.4s21.1,31.2,38.4,49.8
	c17.3,18.6,24.5,40.1,31.2,49.4c6.8,9.3,8,29.1,8,29.1s-18.6,18.1-38,13.9l11.4,58.7l16.9,43.5c0,0,9.3,19,13.1,36.3
	c3.8,17.3,2.3,40.4,4.6,42.6c2.4,2.2,7.6,7.2,7.6,7.2l8.1,19.8l-4.8,3.4l-8.4-17.7l-4.6,7.2l0.4,19.4l-6.3,7.2h-22.4L481,768
	c0,0,4.6-35.4,0.8-37.1c-3.8-1.7-8.8-40.5-17.3-57s-7.2-19.8-13.9-27c-6.8-7.2-25.7-92-25.7-92H413c0,0,9.7,46.4,7.6,60.3
	c-2.1,13.9,9.9,38,9.3,47.3s-3.4,55.3-3.4,55.3s-5.3,16.5-3,20.3c2.3,3.8,4.2,6.8,4.2,6.8l-0.4,33.8h-4.6l-1.7-22.4l-19.8,22.4
	h-24.9l19.4-12.7c0,0,14.8-18.1,11.8-26.2c-3-8,0.4-74.3,0.4-74.3s0.9-14.2-1.3-23.6c-2.2-9.5-11-47.7-11-47.7l-8.4-39.7
	c0,0-0.8,0-7.2,0s-0.4-12.7-0.4-12.7s-10.5-10.1-9.7-31.6c0.8-21.5-3.7-44.2,2.5-64.6c6.3-20.4,8.4-27.4,8.4-27.4s5.4-14.3,0-25.7
	c-5.4-11.4-6.3-13.5-6.3-13.5l-19.4,27.4c0,0-3.8,10.5-13.9,0.8c-10.1-9.7-27-41.8-27-41.8s0.4-3.8,4.6-3s-18.6-11.8-18.6-13.9
	s7.2-13.5,11-13.9c3.8-0.4,8.9,7.2,8.9,7.2l1.3-2.1c0,0-4.6-7.6-5.1-11c-0.4-3.4,2.5-0.8,2.5-0.8l6.3,11.4c0,0,3,13.5,0.4,16.9
	l3.8,0.4c0,0,19.8,32.5,20.3,35C350.1,394.1,377.7,332.3,384.8,329.2z"/>
<line fill="#A308BA" stroke="#A308BA" stroke-width="4" stroke-miterlimit="10" x1="317.5" y1="187.3" x2="319.4" y2="354.9"/>
<path fill="#A308BA" d="M294.6,371.2c0,0,2.7,2.6,13.7,4.3c11,1.7,5.6-37.3,5.6-37.3s9.1,36.4-1.6,40.1
	C301.7,381.9,294.6,371.2,294.6,371.2z"/>
</svg>
